<svg width="620" height="143" viewBox="0 0 620 143" fill="none" xmlns="http://www.w3.org/2000/svg">
<rect width="620" height="143" fill="white"/>
<path d="M92.3906 42L80.4844 47.5781L60.3281 76.9219L61.4531 93.9375L70.7812 100.734L38.9062 102.844L49.4531 95.8594L53.0156 76.7344L34.6875 47.9531L23.3438 43.9219L55.5 36.2344L46.6875 44.2031L57.2344 71.4844L69.7969 44.9531L62.0625 36.8906L92.3906 42ZM127.5 72.7969C127.5 74.4531 127.406 76.2344 127.219 78.1406C127.031 80.0469 126.75 81.9844 126.375 83.9531C126.031 85.9219 125.609 87.8594 125.109 89.7656C124.641 91.6406 124.125 93.375 123.562 94.9688L133.547 102L115.875 101.25L116.953 95.4844C115.078 97.8281 112.906 99.625 110.438 100.875C108 102.094 105.172 102.828 101.953 103.078C99.3281 103.266 97.0312 103.078 95.0625 102.516C93.125 101.984 91.5 101.156 90.1875 100.031C88.9062 98.875 87.9531 97.4688 87.3281 95.8125C86.7031 94.125 86.3906 92.25 86.3906 90.1875C86.3906 88.2812 86.8594 86.4375 87.7969 84.6562C88.7344 82.8438 90.0781 81.25 91.8281 79.875C93.6094 78.5 95.7812 77.4062 98.3438 76.5938C100.906 75.75 103.812 75.3281 107.062 75.3281C108.562 75.3281 110.281 75.4688 112.219 75.75C114.188 76.0312 116.047 76.625 117.797 77.5312C117.641 75.625 117.344 73.6875 116.906 71.7188C116.5 69.7188 115.891 67.9062 115.078 66.2812C114.266 64.6562 113.203 63.3438 111.891 62.3438C110.609 61.3125 109 60.7969 107.062 60.7969C105.406 60.7969 103.797 61.1406 102.234 61.8281C100.672 62.5156 99.2031 63.5 97.8281 64.7812C96.4844 66.0625 95.2656 67.625 94.1719 69.4688C93.0781 71.3125 92.1562 73.3906 91.4062 75.7031L87.4688 52.7344L93.4219 61.875C94.8906 60.0625 96.375 58.625 97.875 57.5625C99.375 56.4688 100.859 55.6406 102.328 55.0781C103.828 54.4844 105.266 54.0938 106.641 53.9062C108.047 53.7188 109.391 53.625 110.672 53.625C113.078 53.75 115.297 54.25 117.328 55.125C119.391 55.9688 121.172 57.2031 122.672 58.8281C124.172 60.4219 125.344 62.3906 126.188 64.7344C127.062 67.0781 127.5 69.7656 127.5 72.7969ZM117.797 87.7969C117.859 86.9219 117.906 86.0781 117.938 85.2656C117.969 84.4531 117.984 83.6562 117.984 82.875V82.3125C116.859 81.875 115.719 81.5469 114.562 81.3281C113.438 81.0781 112.391 80.9062 111.422 80.8125C110.453 80.6875 109.625 80.625 108.938 80.625C108.281 80.5938 107.844 80.5781 107.625 80.5781C105.844 80.6406 104.297 80.9688 102.984 81.5625C101.672 82.1562 100.578 82.9062 99.7031 83.8125C98.8594 84.6875 98.2188 85.6719 97.7812 86.7656C97.375 87.8594 97.1719 88.9375 97.1719 90C97.1719 92.4062 97.75 94.2344 98.9062 95.4844C100.094 96.7031 101.812 97.3125 104.062 97.3125C105.562 97.3125 106.984 97.0469 108.328 96.5156C109.672 95.9844 110.922 95.2812 112.078 94.4062C113.266 93.5 114.328 92.4844 115.266 91.3594C116.234 90.2031 117.078 89.0156 117.797 87.7969ZM173.672 61.0312C173.984 63.5938 174.219 66.375 174.375 69.375C174.562 72.375 174.625 75.4531 174.562 78.6094C174.5 81.7656 174.297 84.9375 173.953 88.125C173.609 91.2812 173.062 94.3281 172.312 97.2656C171.562 100.172 170.594 102.891 169.406 105.422C168.219 107.953 166.75 110.141 165 111.984C163.281 113.859 161.25 115.328 158.906 116.391C156.594 117.484 153.922 118.031 150.891 118.031C147.453 118.031 143.781 117.172 139.875 115.453L136.406 122.344L131.625 103.922C133.031 105.766 134.469 107.25 135.938 108.375C137.438 109.5 138.859 110.359 140.203 110.953C141.578 111.578 142.828 111.984 143.953 112.172C145.109 112.359 146.047 112.453 146.766 112.453C149.328 112.453 151.609 111.641 153.609 110.016C155.641 108.422 157.422 106.203 158.953 103.359C156.453 100.734 154.016 97.8906 151.641 94.8281C149.297 91.7344 147.172 88.4531 145.266 84.9844C143.359 81.4844 141.75 77.8125 140.438 73.9688C139.156 70.125 138.328 66.125 137.953 61.9688L130.266 57.8438L151.969 54.75L147.938 60.2344C148.75 66.5156 150.312 72.6875 152.625 78.75C154.938 84.8125 157.953 90.9688 161.672 97.2188C162.484 94.875 163.188 92.3438 163.781 89.625C164.406 86.9062 164.922 84.0312 165.328 81C165.766 77.9688 166.094 74.8281 166.312 71.5781C166.531 68.2969 166.672 64.9688 166.734 61.5938L159.75 54.75C162.344 54.9375 164.625 55.1094 166.594 55.2656C168.594 55.4219 170.328 55.5625 171.797 55.6875C173.266 55.7812 174.5 55.875 175.5 55.9688C176.531 56.0312 177.375 56.0781 178.031 56.1094C179.562 56.2344 180.469 56.2969 180.75 56.2969L173.672 61.0312ZM194.297 84.7969C194.703 86.5469 195.25 88.2656 195.938 89.9531C196.625 91.6094 197.469 93.0938 198.469 94.4062C199.469 95.7188 200.625 96.7812 201.938 97.5938C203.25 98.4062 204.734 98.8125 206.391 98.8125C208.578 98.8125 210.484 98.3594 212.109 97.4531C213.734 96.5469 215.062 95.4062 216.094 94.0312C217.125 92.625 217.844 91.0938 218.25 89.4375C218.656 87.75 218.734 86.1406 218.484 84.6094C219.359 84.9531 220.078 85.4062 220.641 85.9688C221.234 86.5312 221.688 87.1562 222 87.8438C222.344 88.5 222.578 89.1875 222.703 89.9062C222.828 90.5938 222.891 91.2656 222.891 91.9219C222.891 93.4219 222.453 94.875 221.578 96.2812C220.703 97.6562 219.469 98.8906 217.875 99.9844C216.312 101.047 214.453 101.906 212.297 102.562C210.141 103.219 207.781 103.547 205.219 103.547C201.781 103.547 198.703 102.875 195.984 101.531C193.297 100.188 191.016 98.375 189.141 96.0938C187.266 93.7812 185.828 91.0781 184.828 87.9844C183.828 84.8906 183.328 81.5938 183.328 78.0938C183.328 74.5312 183.828 71.25 184.828 68.25C185.828 65.2188 187.297 62.6406 189.234 60.5156C191.203 58.3906 193.609 56.7812 196.453 55.6875C199.297 54.5938 202.578 54.1562 206.297 54.375C208.859 54.5625 211.219 55.2969 213.375 56.5781C215.531 57.8594 217.406 59.5156 219 61.5469C220.625 63.5469 221.922 65.8438 222.891 68.4375C223.891 71.0312 224.5 73.7344 224.719 76.5469L194.297 84.7969ZM193.406 77.25C193.406 77.6875 193.406 78.125 193.406 78.5625C193.406 78.9688 193.438 79.3906 193.5 79.8281L214.078 72.3281C213.391 70.0781 212.609 68.1562 211.734 66.5625C210.891 64.9375 210 63.6094 209.062 62.5781C208.125 61.5469 207.172 60.7969 206.203 60.3281C205.266 59.8281 204.359 59.5781 203.484 59.5781C202.172 59.5781 201.016 59.8281 200.016 60.3281C199.016 60.8281 198.141 61.5156 197.391 62.3906C196.672 63.2344 196.047 64.2344 195.516 65.3906C195.016 66.5469 194.609 67.7812 194.297 69.0938C193.984 70.4062 193.75 71.7656 193.594 73.1719C193.469 74.5469 193.406 75.9062 193.406 77.25Z" fill="#0A256B"/>
<path d="M301.828 58.5938L294.328 42.5625L270.422 47.2969L271.312 64.4531H278.391L286.172 53.1562V81.6562L278.016 69.0938L271.594 69.8438L272.859 93.2812L286.641 99.1406L250.875 102.938L261.047 93.8438L263.531 48.8906L250.734 37.5938L301.828 35.7656V58.5938ZM346.031 72.7969C346.031 74.4531 345.938 76.2344 345.75 78.1406C345.562 80.0469 345.281 81.9844 344.906 83.9531C344.562 85.9219 344.141 87.8594 343.641 89.7656C343.172 91.6406 342.656 93.375 342.094 94.9688L352.078 102L334.406 101.25L335.484 95.4844C333.609 97.8281 331.438 99.625 328.969 100.875C326.531 102.094 323.703 102.828 320.484 103.078C317.859 103.266 315.562 103.078 313.594 102.516C311.656 101.984 310.031 101.156 308.719 100.031C307.438 98.875 306.484 97.4688 305.859 95.8125C305.234 94.125 304.922 92.25 304.922 90.1875C304.922 88.2812 305.391 86.4375 306.328 84.6562C307.266 82.8438 308.609 81.25 310.359 79.875C312.141 78.5 314.312 77.4062 316.875 76.5938C319.438 75.75 322.344 75.3281 325.594 75.3281C327.094 75.3281 328.812 75.4688 330.75 75.75C332.719 76.0312 334.578 76.625 336.328 77.5312C336.172 75.625 335.875 73.6875 335.438 71.7188C335.031 69.7188 334.422 67.9062 333.609 66.2812C332.797 64.6562 331.734 63.3438 330.422 62.3438C329.141 61.3125 327.531 60.7969 325.594 60.7969C323.938 60.7969 322.328 61.1406 320.766 61.8281C319.203 62.5156 317.734 63.5 316.359 64.7812C315.016 66.0625 313.797 67.625 312.703 69.4688C311.609 71.3125 310.688 73.3906 309.938 75.7031L306 52.7344L311.953 61.875C313.422 60.0625 314.906 58.625 316.406 57.5625C317.906 56.4688 319.391 55.6406 320.859 55.0781C322.359 54.4844 323.797 54.0938 325.172 53.9062C326.578 53.7188 327.922 53.625 329.203 53.625C331.609 53.75 333.828 54.25 335.859 55.125C337.922 55.9688 339.703 57.2031 341.203 58.8281C342.703 60.4219 343.875 62.3906 344.719 64.7344C345.594 67.0781 346.031 69.7656 346.031 72.7969ZM336.328 87.7969C336.391 86.9219 336.438 86.0781 336.469 85.2656C336.5 84.4531 336.516 83.6562 336.516 82.875V82.3125C335.391 81.875 334.25 81.5469 333.094 81.3281C331.969 81.0781 330.922 80.9062 329.953 80.8125C328.984 80.6875 328.156 80.625 327.469 80.625C326.812 80.5938 326.375 80.5781 326.156 80.5781C324.375 80.6406 322.828 80.9688 321.516 81.5625C320.203 82.1562 319.109 82.9062 318.234 83.8125C317.391 84.6875 316.75 85.6719 316.312 86.7656C315.906 87.8594 315.703 88.9375 315.703 90C315.703 92.4062 316.281 94.2344 317.438 95.4844C318.625 96.7031 320.344 97.3125 322.594 97.3125C324.094 97.3125 325.516 97.0469 326.859 96.5156C328.203 95.9844 329.453 95.2812 330.609 94.4062C331.797 93.5 332.859 92.4844 333.797 91.3594C334.766 90.2031 335.609 89.0156 336.328 87.7969ZM365.016 96.1406L374.391 99.8906L350.906 102.188L359.344 95.5781L357.891 44.9531L347.062 40.2656L370.781 37.125L365.016 96.1406ZM387.891 96.1406L397.266 99.8906L373.781 102.188L382.219 95.5781L380.766 44.9531L369.938 40.2656L393.656 37.125L387.891 96.1406Z" fill="#D07A2D"/>
<path d="M435 102.375C430.094 102.375 425.109 102 420.047 101.25L432.797 95.3906L437.109 46.9688L422.625 40.4531C425.656 39.7656 428.734 39.2344 431.859 38.8594C434.984 38.4531 437.859 38.1562 440.484 37.9688C443.516 37.75 446.469 37.625 449.344 37.5938C451.469 37.5938 453.656 37.8438 455.906 38.3438C458.188 38.8438 460.406 39.6406 462.562 40.7344C464.719 41.7969 466.75 43.1719 468.656 44.8594C470.562 46.5469 472.219 48.5625 473.625 50.9062C475.062 53.25 476.203 55.9531 477.047 59.0156C477.891 62.0469 478.312 65.4688 478.312 69.2812C478.312 73.5 477.703 77.25 476.484 80.5312C475.266 83.8125 473.594 86.6719 471.469 89.1094C469.375 91.5469 466.922 93.625 464.109 95.3438C461.297 97.0312 458.281 98.3906 455.062 99.4219C451.844 100.453 448.516 101.203 445.078 101.672C441.672 102.141 438.312 102.375 435 102.375ZM467.391 67.4531C467.391 65.8594 467.266 64.1562 467.016 62.3438C466.797 60.5312 466.406 58.7344 465.844 56.9531C465.281 55.1719 464.531 53.4688 463.594 51.8438C462.656 50.1875 461.484 48.7344 460.078 47.4844C458.703 46.2344 457.062 45.2344 455.156 44.4844C453.25 43.7344 451.047 43.3594 448.547 43.3594C447.234 43.3594 445.859 43.4531 444.422 43.6406V96.1406C448.672 95.5469 452.25 94.4375 455.156 92.8125C458.094 91.1875 460.469 89.1406 462.281 86.6719C464.094 84.1719 465.391 81.3125 466.172 78.0938C466.984 74.8438 467.391 71.2969 467.391 67.4531ZM494.672 84.7969C495.078 86.5469 495.625 88.2656 496.312 89.9531C497 91.6094 497.844 93.0938 498.844 94.4062C499.844 95.7188 501 96.7812 502.312 97.5938C503.625 98.4062 505.109 98.8125 506.766 98.8125C508.953 98.8125 510.859 98.3594 512.484 97.4531C514.109 96.5469 515.438 95.4062 516.469 94.0312C517.5 92.625 518.219 91.0938 518.625 89.4375C519.031 87.75 519.109 86.1406 518.859 84.6094C519.734 84.9531 520.453 85.4062 521.016 85.9688C521.609 86.5312 522.062 87.1562 522.375 87.8438C522.719 88.5 522.953 89.1875 523.078 89.9062C523.203 90.5938 523.266 91.2656 523.266 91.9219C523.266 93.4219 522.828 94.875 521.953 96.2812C521.078 97.6562 519.844 98.8906 518.25 99.9844C516.688 101.047 514.828 101.906 512.672 102.562C510.516 103.219 508.156 103.547 505.594 103.547C502.156 103.547 499.078 102.875 496.359 101.531C493.672 100.188 491.391 98.375 489.516 96.0938C487.641 93.7812 486.203 91.0781 485.203 87.9844C484.203 84.8906 483.703 81.5938 483.703 78.0938C483.703 74.5312 484.203 71.25 485.203 68.25C486.203 65.2188 487.672 62.6406 489.609 60.5156C491.578 58.3906 493.984 56.7812 496.828 55.6875C499.672 54.5938 502.953 54.1562 506.672 54.375C509.234 54.5625 511.594 55.2969 513.75 56.5781C515.906 57.8594 517.781 59.5156 519.375 61.5469C521 63.5469 522.297 65.8438 523.266 68.4375C524.266 71.0312 524.875 73.7344 525.094 76.5469L494.672 84.7969ZM493.781 77.25C493.781 77.6875 493.781 78.125 493.781 78.5625C493.781 78.9688 493.812 79.3906 493.875 79.8281L514.453 72.3281C513.766 70.0781 512.984 68.1562 512.109 66.5625C511.266 64.9375 510.375 63.6094 509.438 62.5781C508.5 61.5469 507.547 60.7969 506.578 60.3281C505.641 59.8281 504.734 59.5781 503.859 59.5781C502.547 59.5781 501.391 59.8281 500.391 60.3281C499.391 60.8281 498.516 61.5156 497.766 62.3906C497.047 63.2344 496.422 64.2344 495.891 65.3906C495.391 66.5469 494.984 67.7812 494.672 69.0938C494.359 70.4062 494.125 71.7656 493.969 73.1719C493.844 74.5469 493.781 75.9062 493.781 77.25ZM576.047 58.9688L567.281 64.0781L557.016 97.9688L564.234 102.938L536.109 102.281L544.828 96.3281L530.906 62.8125L524.766 59.2031L549.469 56.3906L543.797 61.9688L550.781 94.0312L562.125 64.1719L555.094 58.0312L576.047 58.9688Z" fill="#D13291"/>
</svg>
